<mxfile host="app.diagrams.net" modified="2024-02-16T17:44:15.244Z" agent="Mozilla/5.0 (Windows NT 10.0; Win64; x64) AppleWebKit/537.36 (KHTML, like Gecko) Chrome/121.0.0.0 Safari/537.36 Edg/121.0.0.0" etag="DKx6kj6r9uqs1fgdCR5B" version="23.1.4" type="github">
  <diagram id="C5RBs43oDa-KdzZeNtuy" name="Page-1">
    <mxGraphModel dx="1607" dy="934" grid="1" gridSize="10" guides="1" tooltips="1" connect="1" arrows="1" fold="1" page="1" pageScale="1" pageWidth="827" pageHeight="1169" math="0" shadow="0">
      <root>
        <mxCell id="WIyWlLk6GJQsqaUBKTNV-0" />
        <mxCell id="WIyWlLk6GJQsqaUBKTNV-1" parent="WIyWlLk6GJQsqaUBKTNV-0" />
        <mxCell id="_vIWBXA00U8prelzKFhn-0" value="Persona" style="swimlane;fontStyle=0;childLayout=stackLayout;horizontal=1;startSize=20;fillColor=none;horizontalStack=0;resizeParent=1;resizeParentMax=0;resizeLast=0;collapsible=1;marginBottom=0;whiteSpace=wrap;html=1;" vertex="1" parent="WIyWlLk6GJQsqaUBKTNV-1">
          <mxGeometry x="-70" y="30" width="140" height="46" as="geometry" />
        </mxCell>
        <mxCell id="_vIWBXA00U8prelzKFhn-1" value="+ field: type" style="text;strokeColor=none;fillColor=none;align=left;verticalAlign=top;spacingLeft=4;spacingRight=4;overflow=hidden;rotatable=0;points=[[0,0.5],[1,0.5]];portConstraint=eastwest;whiteSpace=wrap;html=1;" vertex="1" parent="_vIWBXA00U8prelzKFhn-0">
          <mxGeometry y="20" width="140" height="26" as="geometry" />
        </mxCell>
        <mxCell id="_vIWBXA00U8prelzKFhn-4" value="Profesor" style="swimlane;fontStyle=0;childLayout=stackLayout;horizontal=1;startSize=20;fillColor=none;horizontalStack=0;resizeParent=1;resizeParentMax=0;resizeLast=0;collapsible=1;marginBottom=0;whiteSpace=wrap;html=1;" vertex="1" parent="WIyWlLk6GJQsqaUBKTNV-1">
          <mxGeometry x="240" y="30" width="140" height="46" as="geometry" />
        </mxCell>
        <mxCell id="_vIWBXA00U8prelzKFhn-5" value="+ field: type" style="text;strokeColor=none;fillColor=none;align=left;verticalAlign=top;spacingLeft=4;spacingRight=4;overflow=hidden;rotatable=0;points=[[0,0.5],[1,0.5]];portConstraint=eastwest;whiteSpace=wrap;html=1;" vertex="1" parent="_vIWBXA00U8prelzKFhn-4">
          <mxGeometry y="20" width="140" height="26" as="geometry" />
        </mxCell>
        <mxCell id="_vIWBXA00U8prelzKFhn-6" value="Paralelo" style="swimlane;fontStyle=0;childLayout=stackLayout;horizontal=1;startSize=20;fillColor=none;horizontalStack=0;resizeParent=1;resizeParentMax=0;resizeLast=0;collapsible=1;marginBottom=0;whiteSpace=wrap;html=1;" vertex="1" parent="WIyWlLk6GJQsqaUBKTNV-1">
          <mxGeometry x="650" y="110" width="140" height="46" as="geometry" />
        </mxCell>
        <mxCell id="_vIWBXA00U8prelzKFhn-7" value="- nombre: String" style="text;strokeColor=none;fillColor=none;align=left;verticalAlign=top;spacingLeft=4;spacingRight=4;overflow=hidden;rotatable=0;points=[[0,0.5],[1,0.5]];portConstraint=eastwest;whiteSpace=wrap;html=1;" vertex="1" parent="_vIWBXA00U8prelzKFhn-6">
          <mxGeometry y="20" width="140" height="26" as="geometry" />
        </mxCell>
        <mxCell id="_vIWBXA00U8prelzKFhn-8" value="Estudiante" style="swimlane;fontStyle=0;childLayout=stackLayout;horizontal=1;startSize=20;fillColor=none;horizontalStack=0;resizeParent=1;resizeParentMax=0;resizeLast=0;collapsible=1;marginBottom=0;whiteSpace=wrap;html=1;" vertex="1" parent="WIyWlLk6GJQsqaUBKTNV-1">
          <mxGeometry x="-220" y="130" width="140" height="46" as="geometry" />
        </mxCell>
        <mxCell id="_vIWBXA00U8prelzKFhn-9" value="+ field: type" style="text;strokeColor=none;fillColor=none;align=left;verticalAlign=top;spacingLeft=4;spacingRight=4;overflow=hidden;rotatable=0;points=[[0,0.5],[1,0.5]];portConstraint=eastwest;whiteSpace=wrap;html=1;" vertex="1" parent="_vIWBXA00U8prelzKFhn-8">
          <mxGeometry y="20" width="140" height="26" as="geometry" />
        </mxCell>
        <mxCell id="_vIWBXA00U8prelzKFhn-10" value="Asignatura" style="swimlane;fontStyle=0;childLayout=stackLayout;horizontal=1;startSize=20;fillColor=none;horizontalStack=0;resizeParent=1;resizeParentMax=0;resizeLast=0;collapsible=1;marginBottom=0;whiteSpace=wrap;html=1;" vertex="1" parent="WIyWlLk6GJQsqaUBKTNV-1">
          <mxGeometry x="620" y="300" width="140" height="46" as="geometry" />
        </mxCell>
        <mxCell id="_vIWBXA00U8prelzKFhn-38" value="- nombre: String" style="text;strokeColor=none;fillColor=none;align=left;verticalAlign=top;spacingLeft=4;spacingRight=4;overflow=hidden;rotatable=0;points=[[0,0.5],[1,0.5]];portConstraint=eastwest;whiteSpace=wrap;html=1;" vertex="1" parent="_vIWBXA00U8prelzKFhn-10">
          <mxGeometry y="20" width="140" height="26" as="geometry" />
        </mxCell>
        <mxCell id="_vIWBXA00U8prelzKFhn-12" value="Matricula" style="swimlane;fontStyle=0;childLayout=stackLayout;horizontal=1;startSize=20;fillColor=none;horizontalStack=0;resizeParent=1;resizeParentMax=0;resizeLast=0;collapsible=1;marginBottom=0;whiteSpace=wrap;html=1;" vertex="1" parent="WIyWlLk6GJQsqaUBKTNV-1">
          <mxGeometry x="-220" y="300" width="140" height="46" as="geometry" />
        </mxCell>
        <mxCell id="_vIWBXA00U8prelzKFhn-40" value="- numero: String" style="text;strokeColor=none;fillColor=none;align=left;verticalAlign=top;spacingLeft=4;spacingRight=4;overflow=hidden;rotatable=0;points=[[0,0.5],[1,0.5]];portConstraint=eastwest;whiteSpace=wrap;html=1;" vertex="1" parent="_vIWBXA00U8prelzKFhn-12">
          <mxGeometry y="20" width="140" height="26" as="geometry" />
        </mxCell>
        <mxCell id="_vIWBXA00U8prelzKFhn-17" value="" style="endArrow=block;endSize=16;endFill=0;html=1;rounded=0;fontSize=12;" edge="1" parent="WIyWlLk6GJQsqaUBKTNV-1" source="_vIWBXA00U8prelzKFhn-4" target="_vIWBXA00U8prelzKFhn-0">
          <mxGeometry width="160" relative="1" as="geometry">
            <mxPoint x="420" y="280" as="sourcePoint" />
            <mxPoint x="580" y="280" as="targetPoint" />
          </mxGeometry>
        </mxCell>
        <mxCell id="_vIWBXA00U8prelzKFhn-18" value="" style="endArrow=block;endSize=16;endFill=0;html=1;rounded=0;fontSize=12;" edge="1" parent="WIyWlLk6GJQsqaUBKTNV-1" source="_vIWBXA00U8prelzKFhn-8" target="_vIWBXA00U8prelzKFhn-0">
          <mxGeometry width="160" relative="1" as="geometry">
            <mxPoint x="194" y="130" as="sourcePoint" />
            <mxPoint x="156" y="76" as="targetPoint" />
          </mxGeometry>
        </mxCell>
        <mxCell id="_vIWBXA00U8prelzKFhn-20" value="Asignacion" style="swimlane;fontStyle=0;childLayout=stackLayout;horizontal=1;startSize=20;fillColor=none;horizontalStack=0;resizeParent=1;resizeParentMax=0;resizeLast=0;collapsible=1;marginBottom=0;whiteSpace=wrap;html=1;" vertex="1" parent="WIyWlLk6GJQsqaUBKTNV-1">
          <mxGeometry x="240" y="300" width="140" height="46" as="geometry" />
        </mxCell>
        <mxCell id="_vIWBXA00U8prelzKFhn-21" value="+ field: type" style="text;strokeColor=none;fillColor=none;align=left;verticalAlign=top;spacingLeft=4;spacingRight=4;overflow=hidden;rotatable=0;points=[[0,0.5],[1,0.5]];portConstraint=eastwest;whiteSpace=wrap;html=1;" vertex="1" parent="_vIWBXA00U8prelzKFhn-20">
          <mxGeometry y="20" width="140" height="26" as="geometry" />
        </mxCell>
        <mxCell id="_vIWBXA00U8prelzKFhn-23" value="" style="endArrow=none;html=1;rounded=0;fontSize=12;startSize=8;endSize=8;" edge="1" parent="WIyWlLk6GJQsqaUBKTNV-1" source="_vIWBXA00U8prelzKFhn-20" target="_vIWBXA00U8prelzKFhn-10">
          <mxGeometry width="50" height="50" relative="1" as="geometry">
            <mxPoint x="310" y="250" as="sourcePoint" />
            <mxPoint x="360" y="200" as="targetPoint" />
          </mxGeometry>
        </mxCell>
        <mxCell id="_vIWBXA00U8prelzKFhn-51" value="asignatura 1" style="edgeLabel;html=1;align=center;verticalAlign=middle;resizable=0;points=[];;fontSize=12;" vertex="1" connectable="0" parent="_vIWBXA00U8prelzKFhn-23">
          <mxGeometry x="0.7956" y="-3" relative="1" as="geometry">
            <mxPoint x="-15" y="-3" as="offset" />
          </mxGeometry>
        </mxCell>
        <mxCell id="_vIWBXA00U8prelzKFhn-24" value="" style="endArrow=none;html=1;rounded=0;fontSize=12;startSize=8;endSize=8;" edge="1" parent="WIyWlLk6GJQsqaUBKTNV-1" source="_vIWBXA00U8prelzKFhn-20" target="_vIWBXA00U8prelzKFhn-6">
          <mxGeometry width="50" height="50" relative="1" as="geometry">
            <mxPoint x="310" y="250" as="sourcePoint" />
            <mxPoint x="360" y="200" as="targetPoint" />
          </mxGeometry>
        </mxCell>
        <mxCell id="_vIWBXA00U8prelzKFhn-25" value="" style="endArrow=none;html=1;rounded=0;fontSize=12;startSize=8;endSize=8;" edge="1" parent="WIyWlLk6GJQsqaUBKTNV-1" source="_vIWBXA00U8prelzKFhn-20" target="_vIWBXA00U8prelzKFhn-4">
          <mxGeometry width="50" height="50" relative="1" as="geometry">
            <mxPoint x="310" y="230" as="sourcePoint" />
            <mxPoint x="360" y="200" as="targetPoint" />
          </mxGeometry>
        </mxCell>
        <mxCell id="_vIWBXA00U8prelzKFhn-42" value="profesor 1" style="edgeLabel;html=1;align=center;verticalAlign=middle;resizable=0;points=[];;fontSize=12;" vertex="1" connectable="0" parent="_vIWBXA00U8prelzKFhn-25">
          <mxGeometry x="0.9338" y="-2" relative="1" as="geometry">
            <mxPoint as="offset" />
          </mxGeometry>
        </mxCell>
        <mxCell id="_vIWBXA00U8prelzKFhn-43" value="asignacionList 0..*" style="edgeLabel;html=1;align=center;verticalAlign=middle;resizable=0;points=[];;fontSize=12;" vertex="1" connectable="0" parent="_vIWBXA00U8prelzKFhn-25">
          <mxGeometry x="-0.752" relative="1" as="geometry">
            <mxPoint x="10" as="offset" />
          </mxGeometry>
        </mxCell>
        <mxCell id="_vIWBXA00U8prelzKFhn-26" value="Asistencia" style="swimlane;fontStyle=0;childLayout=stackLayout;horizontal=1;startSize=20;fillColor=none;horizontalStack=0;resizeParent=1;resizeParentMax=0;resizeLast=0;collapsible=1;marginBottom=0;whiteSpace=wrap;html=1;" vertex="1" parent="WIyWlLk6GJQsqaUBKTNV-1">
          <mxGeometry x="10" y="410" width="140" height="100" as="geometry" />
        </mxCell>
        <mxCell id="_vIWBXA00U8prelzKFhn-27" value="- dia: String&lt;br&gt;" style="text;strokeColor=none;fillColor=none;align=left;verticalAlign=top;spacingLeft=4;spacingRight=4;overflow=hidden;rotatable=0;points=[[0,0.5],[1,0.5]];portConstraint=eastwest;whiteSpace=wrap;html=1;" vertex="1" parent="_vIWBXA00U8prelzKFhn-26">
          <mxGeometry y="20" width="140" height="26" as="geometry" />
        </mxCell>
        <mxCell id="_vIWBXA00U8prelzKFhn-35" value="- hora: String" style="text;strokeColor=none;fillColor=none;align=left;verticalAlign=top;spacingLeft=4;spacingRight=4;overflow=hidden;rotatable=0;points=[[0,0.5],[1,0.5]];portConstraint=eastwest;whiteSpace=wrap;html=1;" vertex="1" parent="_vIWBXA00U8prelzKFhn-26">
          <mxGeometry y="46" width="140" height="26" as="geometry" />
        </mxCell>
        <mxCell id="_vIWBXA00U8prelzKFhn-36" value="&lt;span style=&quot;color: rgb(0, 0, 0); font-family: Helvetica; font-size: 12px; font-style: normal; font-variant-ligatures: normal; font-variant-caps: normal; font-weight: 400; letter-spacing: normal; orphans: 2; text-align: left; text-indent: 0px; text-transform: none; widows: 2; word-spacing: 0px; -webkit-text-stroke-width: 0px; background-color: rgb(251, 251, 251); text-decoration-thickness: initial; text-decoration-style: initial; text-decoration-color: initial; float: none; display: inline !important;&quot;&gt;- fecha: Date&lt;/span&gt;" style="text;whiteSpace=wrap;html=1;" vertex="1" parent="_vIWBXA00U8prelzKFhn-26">
          <mxGeometry y="72" width="140" height="28" as="geometry" />
        </mxCell>
        <mxCell id="_vIWBXA00U8prelzKFhn-28" value="" style="endArrow=none;html=1;rounded=0;fontSize=12;startSize=8;endSize=8;" edge="1" parent="WIyWlLk6GJQsqaUBKTNV-1" source="_vIWBXA00U8prelzKFhn-12" target="_vIWBXA00U8prelzKFhn-20">
          <mxGeometry width="50" height="50" relative="1" as="geometry">
            <mxPoint x="310" y="250" as="sourcePoint" />
            <mxPoint x="360" y="200" as="targetPoint" />
          </mxGeometry>
        </mxCell>
        <mxCell id="_vIWBXA00U8prelzKFhn-29" value="PeriodoAcademico" style="swimlane;fontStyle=0;childLayout=stackLayout;horizontal=1;startSize=20;fillColor=none;horizontalStack=0;resizeParent=1;resizeParentMax=0;resizeLast=0;collapsible=1;marginBottom=0;whiteSpace=wrap;html=1;" vertex="1" parent="WIyWlLk6GJQsqaUBKTNV-1">
          <mxGeometry x="40" y="120" width="140" height="46" as="geometry" />
        </mxCell>
        <mxCell id="_vIWBXA00U8prelzKFhn-39" value="- nombre: String" style="text;strokeColor=none;fillColor=none;align=left;verticalAlign=top;spacingLeft=4;spacingRight=4;overflow=hidden;rotatable=0;points=[[0,0.5],[1,0.5]];portConstraint=eastwest;whiteSpace=wrap;html=1;" vertex="1" parent="_vIWBXA00U8prelzKFhn-29">
          <mxGeometry y="20" width="140" height="26" as="geometry" />
        </mxCell>
        <mxCell id="_vIWBXA00U8prelzKFhn-31" value="" style="endArrow=none;dashed=1;html=1;dashPattern=1 3;strokeWidth=2;rounded=0;fontSize=12;startSize=8;endSize=8;" edge="1" parent="WIyWlLk6GJQsqaUBKTNV-1" source="_vIWBXA00U8prelzKFhn-26">
          <mxGeometry width="50" height="50" relative="1" as="geometry">
            <mxPoint x="310" y="250" as="sourcePoint" />
            <mxPoint x="80" y="320" as="targetPoint" />
          </mxGeometry>
        </mxCell>
        <mxCell id="_vIWBXA00U8prelzKFhn-32" value="" style="endArrow=none;html=1;rounded=0;fontSize=12;startSize=8;endSize=8;" edge="1" parent="WIyWlLk6GJQsqaUBKTNV-1" source="_vIWBXA00U8prelzKFhn-20" target="_vIWBXA00U8prelzKFhn-29">
          <mxGeometry width="50" height="50" relative="1" as="geometry">
            <mxPoint x="310" y="250" as="sourcePoint" />
            <mxPoint x="360" y="200" as="targetPoint" />
          </mxGeometry>
        </mxCell>
        <mxCell id="_vIWBXA00U8prelzKFhn-47" value="1&lt;br&gt;" style="edgeLabel;html=1;align=center;verticalAlign=middle;resizable=0;points=[];;fontSize=12;" vertex="1" connectable="0" parent="_vIWBXA00U8prelzKFhn-32">
          <mxGeometry x="0.8219" y="2" relative="1" as="geometry">
            <mxPoint as="offset" />
          </mxGeometry>
        </mxCell>
        <mxCell id="_vIWBXA00U8prelzKFhn-33" value="" style="endArrow=none;html=1;rounded=0;fontSize=12;startSize=8;endSize=8;" edge="1" parent="WIyWlLk6GJQsqaUBKTNV-1" source="_vIWBXA00U8prelzKFhn-12" target="_vIWBXA00U8prelzKFhn-29">
          <mxGeometry width="50" height="50" relative="1" as="geometry">
            <mxPoint x="310" y="250" as="sourcePoint" />
            <mxPoint x="360" y="200" as="targetPoint" />
          </mxGeometry>
        </mxCell>
        <mxCell id="_vIWBXA00U8prelzKFhn-46" value="periodoAcademico 1&lt;br&gt;" style="edgeLabel;html=1;align=center;verticalAlign=middle;resizable=0;points=[];;fontSize=12;" vertex="1" connectable="0" parent="_vIWBXA00U8prelzKFhn-33">
          <mxGeometry x="0.8826" y="2" relative="1" as="geometry">
            <mxPoint x="-4" y="8" as="offset" />
          </mxGeometry>
        </mxCell>
        <mxCell id="_vIWBXA00U8prelzKFhn-41" value="" style="endArrow=none;html=1;rounded=0;fontSize=12;startSize=8;endSize=8;" edge="1" parent="WIyWlLk6GJQsqaUBKTNV-1" source="_vIWBXA00U8prelzKFhn-12" target="_vIWBXA00U8prelzKFhn-8">
          <mxGeometry width="50" height="50" relative="1" as="geometry">
            <mxPoint x="310" y="240" as="sourcePoint" />
            <mxPoint x="360" y="190" as="targetPoint" />
          </mxGeometry>
        </mxCell>
        <mxCell id="_vIWBXA00U8prelzKFhn-44" value="estudiante 1" style="edgeLabel;html=1;align=center;verticalAlign=middle;resizable=0;points=[];;fontSize=12;" vertex="1" connectable="0" parent="_vIWBXA00U8prelzKFhn-41">
          <mxGeometry x="0.8287" y="-1" relative="1" as="geometry">
            <mxPoint as="offset" />
          </mxGeometry>
        </mxCell>
        <mxCell id="_vIWBXA00U8prelzKFhn-45" value="matriculaList&amp;nbsp; 1..*" style="edgeLabel;html=1;align=center;verticalAlign=middle;resizable=0;points=[];;fontSize=12;" vertex="1" connectable="0" parent="_vIWBXA00U8prelzKFhn-41">
          <mxGeometry x="-0.7842" y="-1" relative="1" as="geometry">
            <mxPoint x="-51" y="-6" as="offset" />
          </mxGeometry>
        </mxCell>
        <mxCell id="_vIWBXA00U8prelzKFhn-48" value="asignacionList *" style="edgeLabel;html=1;align=center;verticalAlign=middle;resizable=0;points=[];;fontSize=12;" vertex="1" connectable="0" parent="WIyWlLk6GJQsqaUBKTNV-1">
          <mxGeometry x="414" y="282" as="geometry" />
        </mxCell>
        <mxCell id="_vIWBXA00U8prelzKFhn-49" value="asignacionList 0..*" style="edgeLabel;html=1;align=center;verticalAlign=middle;resizable=0;points=[];;fontSize=12;" vertex="1" connectable="0" parent="WIyWlLk6GJQsqaUBKTNV-1">
          <mxGeometry x="220" y="282" as="geometry" />
        </mxCell>
        <mxCell id="_vIWBXA00U8prelzKFhn-50" value="asignacionList 0..*" style="edgeLabel;html=1;align=center;verticalAlign=middle;resizable=0;points=[];;fontSize=12;" vertex="1" connectable="0" parent="WIyWlLk6GJQsqaUBKTNV-1">
          <mxGeometry x="440" y="330" as="geometry" />
        </mxCell>
      </root>
    </mxGraphModel>
  </diagram>
</mxfile>
